<?xml version="1.0" standalone="no"?>
<!DOCTYPE svg PUBLIC "-//W3C//DTD SVG 20010904//EN"
 "http://www.w3.org/TR/2001/REC-SVG-20010904/DTD/svg10.dtd">
<svg version="1.0" xmlns="http://www.w3.org/2000/svg"
 width="500.000000pt" height="500.000000pt" viewBox="0 0 500.000000 500.000000"
 preserveAspectRatio="xMidYMid meet">
<metadata>
Created by potrace 1.11, written by Peter Selinger 2001-2013
</metadata>
<g transform="translate(0.000000,500.000000) scale(0.100000,-0.100000)"
fill="#000000" stroke="none">
<path d="M1537 3672 l-957 -957 420 -420 420 -420 -57 -57 c-32 -32 -55 -58
-53 -59 3 0 165 -42 360 -93 195 -51 357 -92 358 -90 2 1 -38 165 -90 363
l-93 360 -58 -57 -57 -57 -268 268 -267 267 652 652 653 653 200 -200 199
-199 -53 205 -53 206 182 -48 c100 -25 193 -50 206 -54 14 -4 -123 141 -326
344 -192 193 -352 351 -355 351 -3 0 -436 -431 -963 -958z"/>
<path d="M2970 3853 c0 -12 182 -708 186 -712 3 -3 30 21 62 52 l57 57 265
-265 265 -265 -652 -652 -653 -653 -193 193 c-106 105 -195 192 -199 192 -3 0
17 -88 45 -195 27 -107 48 -197 46 -199 -2 -3 -90 18 -194 45 -105 27 -194 49
-200 49 -5 0 23 -33 63 -73 39 -40 72 -78 72 -84 0 -7 -59 -227 -131 -489 -72
-262 -128 -478 -126 -480 2 -3 114 85 248 193 134 109 288 234 342 277 l98 79
65 -64 64 -64 960 960 960 960 -420 420 -420 420 57 57 c31 32 55 59 53 62 -5
4 -703 186 -715 186 -3 0 -5 -3 -5 -7z"/>
<path d="M1990 2902 c-138 -69 -86 -286 70 -286 156 0 208 217 70 286 -19 10
-51 18 -70 18 -19 0 -51 -8 -70 -18z"/>
<path d="M2366 2898 c-53 -32 -78 -80 -73 -141 17 -190 297 -183 299 7 2 118
-125 193 -226 134z"/>
<path d="M2747 2898 c-49 -29 -81 -94 -74 -148 14 -107 135 -167 228 -114 46
27 82 97 75 148 -13 106 -137 169 -229 114z"/>
</g>
</svg>
