<?xml version="1.0" encoding="UTF-8" standalone="no"?>

<svg
   xmlns:dc="http://purl.org/dc/elements/1.1/"
   xmlns:cc="http://creativecommons.org/ns#"
   xmlns:rdf="http://www.w3.org/1999/02/22-rdf-syntax-ns#"
   xmlns:svg="http://www.w3.org/2000/svg"
   xmlns="http://www.w3.org/2000/svg"
   xmlns:sodipodi="http://sodipodi.sourceforge.net/DTD/sodipodi-0.dtd"
   xmlns:inkscape="http://www.inkscape.org/namespaces/inkscape"
    width="85mm"
   height="100mm"
   data-name="Layer 1"
   viewBox="0 0 80 100"

   version="1.1"
   id="svg8"
   sodipodi:docname="brand_icon.svg"

   inkscape:version="0.92.3 (2405546, 2018-03-11)">
  <metadata
     id="metadata34">
    <rdf:RDF>
      <cc:Work
         rdf:about="">
        <dc:format>image/svg+xml</dc:format>
        <dc:type
           rdf:resource="http://purl.org/dc/dcmitype/StillImage" />
        <dc:title></dc:title>
      </cc:Work>
    </rdf:RDF>
  </metadata>
  <sodipodi:namedview
     pagecolor="#ffffff"
     bordercolor="#666666"
     borderopacity="1"
     objecttolerance="10"
     gridtolerance="10"
     guidetolerance="10"
     inkscape:pageopacity="0"
     inkscape:pageshadow="2"
     inkscape:window-width="1920"
     inkscape:window-height="1017"
     id="namedview32"
     showgrid="false"
     inkscape:zoom="6.526875"
     inkscape:cx="45.215154"
     inkscape:cy="56.220977"
     inkscape:window-x="-8"
     inkscape:window-y="-8"
     inkscape:window-maximized="1"
     inkscape:current-layer="svg30" />
  <defs
     id="defs4">
    <style
       id="style2">.cls-1{fill:none;stroke:#000;stroke-linecap:round;stroke-miterlimit:10;stroke-width:3px;}</style>
  </defs>
  <title
     id="title6"></title>
  <g
     id="g850"
     transform="matrix(1.1691555,0,0,1.1691555,-18.719562,-9.9253999)">
    <path
       id="path8"
       d="M 21,23.44 A 39.3,39.3 0 0 1 47.91,10.06 c 16.43,-1 27.18,9 28.91,10.7"
       class="cls-1"
       inkscape:connector-curvature="0"
       style="fill:none;stroke:#000000;stroke-width:3px;stroke-linecap:round;stroke-miterlimit:10" />
    <path
       id="path10"
       d="m 18.42,39.42 c 1.75,-2.92 12,-19.43 29.39,-20.91 18,-1.53 29.73,14.13 31.62,16.73"
       class="cls-1"
       inkscape:connector-curvature="0"
       style="fill:none;stroke:#000000;stroke-width:3px;stroke-linecap:round;stroke-miterlimit:10" />
    <path
       id="path12"
       d="m 19.06,50.5 a 38.25,38.25 0 0 0 6.37,-6 c 3.27,-3.88 3.7,-6 5.86,-8.79 4.88,-6.35 12.37,-8.26 13.5,-8.53 10.42,-2.51 18.82,3.11 19.49,3.57 a 24.82,24.82 0 0 1 10.56,19.37 c 0.12,7.17 -3.69,10.07 -2.17,16.68 a 19.24,19.24 0 0 0 6,9.68"
       class="cls-1"
       inkscape:connector-curvature="0"
       style="fill:none;stroke:#000000;stroke-width:3px;stroke-linecap:round;stroke-miterlimit:10" />
    <path
       id="path14"
       d="M 18.81,62.47 A 47.22,47.22 0 0 0 30.14,51.26 c 4.14,-5.84 4.51,-9.38 9.17,-12.74 A 17.8,17.8 0 0 1 50.39,35 17.62,17.62 0 0 1 64,42.73 c 6.19,9.74 -3.63,20.23 2.42,31.84 a 21.72,21.72 0 0 0 7.51,8"
       class="cls-1"
       inkscape:connector-curvature="0"
       style="fill:none;stroke:#000000;stroke-width:3px;stroke-linecap:round;stroke-miterlimit:10" />
    <path
       id="path16"
       d="M 17.92,73.8 C 28.77,66.75 34.92,59.47 38.55,54.06 41.47,49.7 44,44.65 48.86,44 a 9.57,9.57 0 0 1 9.42,4.84 c 1.31,2.68 0.8,6.09 -2.17,11.59 C 49.87,72 38.93,81.29 29.63,87.69"
       class="cls-1"
       inkscape:connector-curvature="0"
       style="fill:none;stroke:#000000;stroke-width:3px;stroke-linecap:round;stroke-miterlimit:10" />
    <path
       id="path18"
       d="M 21.1,82.59 A 103.26,103.26 0 0 0 40.71,65.65 102.8,102.8 0 0 0 50.39,53"
       class="cls-1"
       inkscape:connector-curvature="0"
       style="fill:none;stroke:#000000;stroke-width:3px;stroke-linecap:round;stroke-miterlimit:10" />
    <path
       id="path20"
       d="m 79.43,40.95 a 37.29,37.29 0 0 1 1.15,26.87"
       class="cls-1"
       inkscape:connector-curvature="0"
       style="fill:none;stroke:#000000;stroke-width:3px;stroke-linecap:round;stroke-miterlimit:10" />
    <path
       id="path22"
       d="m 57.14,71.13 a 14.26,14.26 0 0 0 -0.64,9.17 14.6,14.6 0 0 0 7.13,8.79"
       class="cls-1"
       inkscape:connector-curvature="0"
       style="fill:none;stroke:#000000;stroke-width:3px;stroke-linecap:round;stroke-miterlimit:10" />
    <path
       id="path24"
       d="m 37.66,90.36 a 24.35,24.35 0 0 1 4.46,-3.57 c 2.4,-1.49 4,-2.52 5.73,-2.29 2.65,0.35 4.85,3.68 5.73,8"
       class="cls-1"
       inkscape:connector-curvature="0"
       style="fill:none;stroke:#000000;stroke-width:3px;stroke-linecap:round;stroke-miterlimit:10" />
  </g>
</svg>
